#!OML:ASF H:\Terrain\Patient Classification 1\Animal1\Tuesday\Animal1.ASF
:FULLY-SPECIFIED
:DEGREES
3239
root 10.5756 16.3674 -2.98469 -720.349 82.2753 -11.133
lowerback 2.98725 0.144164 2.52848
upperback -7.30566 0.602474 0.72158
thorax -9.37668 0.205761 -0.727213
lowerneck -2.49415 -4.03362 -9.07696
upperneck 14.6508 -5.86633 9.37663
head 5.33589 -2.71014 4.127
rclavicle -1.30577e-014 1.39149e-015
rhumerus 25.0414 -1.48572 5.11066
rradius 31.2734
rwrist -7.25886
rhand 2.57115 16.5562
rfingers 7.12502
rthumb 28.0507 -11.3668
lclavicle -1.30577e-014 1.39149e-015
lhumerus 23.1394 21.1504 15.908
lradius 48.9674
lwrist -39.9422
lhand 19.0421 28.2748
lfingers 7.12502
lthumb 43.6417 52.2901
rfemur -41.5441 0.505888 29.9427
rtibia 45.7905
rfoot 7.50026 -14.1791
rtoes -22.6268
lfemur -24.6868 -3.50756 -19.7508
ltibia 66.7249
lfoot 23.1729 -7.81966
ltoes 25.6416
3240
root 10.7107 16.3749 -2.92183 -723.925 81.9216 -14.5024
lowerback 3.1987 0.198055 2.99153
upperback -7.23426 0.719418 0.787308
thorax -9.41955 0.230274 -0.930658
lowerneck -2.46149 -3.9669 -8.78689
upperneck 14.7373 -5.7603 9.08053
head 5.3308 -2.65971 3.99183
rclavicle -2.88424e-014 -1.70955e-014
rhumerus 25.9377 -2.52951 4.6985
rradius 31.1906
rwrist -7.00071
rhand 2.07128 17.2723
rfingers 7.12502
rthumb 27.5728 -10.728
lclavicle -2.88424e-014 -1.70955e-014
lhumerus 23.9184 21.6344 16.3255
lradius 49.1097
lwrist -40.1681
lhand 18.992 28.3222
lfingers 7.12502
lthumb 43.595 52.3545
rfemur -40.6965 0.872732 30.5171
rtibia 45.887
rfoot 5.22268 -15.1061
rtoes -13.6659
lfemur -26.0102 -3.54208 -19.0869
ltibia 68.6877
lfoot 20.5951 -6.08072
ltoes 25.8225
3241
root 10.8442 16.3599 -2.86539 -727.271 81.5367 -17.6773
lowerback 3.39056 0.304151 3.50836
upperback -7.23269 0.914811 0.816251
thorax -9.52289 0.287304 -1.21278
lowerneck -2.18806 -3.98409 -8.72992
upperneck 14.7226 -5.79747 9.05127
head 5.28041 -2.68148 3.97557
rclavicle -3.2054e-015 1.2424e-014
rhumerus 26.2839 -2.979 4.75776
rradius 31.7383
rwrist -7.09863
rhand 1.72006 17.2972
rfingers 7.12502
rthumb 27.2368 -10.7563
lclavicle -3.2054e-015 1.2424e-014
lhumerus 24.8394 21.9101 16.8199
lradius 49.2617
lwrist -40.3611
lhand 18.9512 28.6477
lfingers 7.12502
lthumb 43.5568 52.6939
rfemur -39.9084 0.923076 31.3719
rtibia 45.9752
rfoot 6.61452 -14.2882
rtoes -20.5281
lfemur -27.4635 -3.75713 -18.4229
ltibia 70.4612
lfoot 18.4083 -4.99356
ltoes 26.7894
3242
root 10.9757 16.3512 -2.81146 -729.419 81.1806 -19.685
lowerback 3.53029 0.46444 3.77556
upperback -7.22653 1.1664 0.891504
thorax -9.58719 0.392777 -1.31288
lowerneck -2.10408 -4.00569 -8.87313
upperneck 14.8161 -5.83072 9.10068
head 5.30357 -2.70223 4.01548
rclavicle 1.80832e-014 2.09718e-014
rhumerus 26.7022 -3.83728 4.68517
rradius 32.0619
rwrist -6.45669
rhand 1.51142 17.8266
rfingers 7.12502
rthumb 27.0372 -10.258
lclavicle 1.80832e-014 2.09718e-014
lhumerus 25.8481 22.2054 17.6273
lradius 49.3587
lwrist -40.713
lhand 18.7969 28.7691
lfingers 7.12502
lthumb 43.4127 52.8676
rfemur -39.2599 0.714579 32.1907
rtibia 46.0887
rfoot 8.92435 -12.4278
rtoes -29.9389
lfemur -29.0349 -3.90051 -17.8215
ltibia 71.9883
lfoot 16.5134 -4.31137
ltoes 27.4775
3243
root 11.1038 16.3551 -2.75584 -729.869 80.8505 -20.0305
lowerback 3.60849 0.558214 3.70847
upperback -7.14832 1.29571 1.0109
thorax -9.54398 0.466509 -1.1642
lowerneck -2.38818 -3.96104 -8.86485
upperneck 15.0363 -5.72347 8.82006
head 5.40363 -2.6584 3.92738
rclavicle -2.73329e-016 6.85807e-015
rhumerus 27.6496 -5.28039 4.15092
rradius 32.1074
rwrist -5.67262
rhand 2.03174 17.8825
rfingers 7.12502
rthumb 27.5349 -10.1239
lclavicle -2.73329e-016 6.85807e-015
lhumerus 26.5534 22.6287 18.2344
lradius 49.5261
lwrist -41.0726
lhand 18.856 28.7998
lfingers 7.12502
lthumb 43.4679 52.8783
rfemur -38.7366 0.654378 32.5581
rtibia 46.2927
rfoot 8.69196 -11.9881
rtoes -30.7905
lfemur -30.5769 -3.94389 -17.4907
ltibia 73.1961
lfoot 14.6096 -3.73839
ltoes 25.4399
3244
root 11.2298 16.347 -2.70122 -730.442 80.5706 -20.5074
lowerback 3.68598 0.609495 3.67805
upperback -7.107 1.36771 1.06911
thorax -9.54283 0.506012 -1.09472
lowerneck -2.56194 -3.94349 -8.85294
upperneck 15.4452 -5.69352 8.76071
head 5.55571 -2.63672 3.90852
rclavicle 1.49772e-014 -9.54166e-015
rhumerus 28.3964 -6.21019 3.79688
rradius 32.3776
rwrist -5.58693
rhand 2.53463 17.5659
rfingers 7.12502
rthumb 28.0158 -10.3628
lclavicle 1.49772e-014 -9.54166e-015
lhumerus 27.3257 22.9606 18.6468
lradius 49.6494
lwrist -41.1459
lhand 19.0412 28.7102
lfingers 7.12502
lthumb 43.6408 52.7257
rfemur -38.3117 0.70729 32.8337
rtibia 46.7089
rfoot 7.8304 -12.0118
rtoes -30.3009
lfemur -32.069 -4.38904 -17.2407
ltibia 74.1482
lfoot 12.6992 -3.36231
ltoes 23.3451
3245
root 11.3529 16.3418 -2.64931 -731.111 80.366 -21.1347
lowerback 3.75593 0.650784 3.75949
upperback -7.14107 1.42721 0.977824
thorax -9.61625 0.523181 -1.24555
lowerneck -2.47891 -3.94268 -8.56947
upperneck 15.7759 -5.72373 8.74762
head 5.63784 -2.63018 3.8595
rclavicle -3.96203e-014 -1.51076e-014
rhumerus 28.8136 -6.77458 3.46383
rradius 32.6861
rwrist -5.39268
rhand 1.88878 18.0772
rfingers 7.12502
rthumb 27.3982 -9.95088
lclavicle -3.96203e-014 -1.51076e-014
lhumerus 28.5344 23.3255 19.2643
lradius 49.5289
lwrist -41.2849
lhand 19.0354 28.3193
lfingers 7.12502
lthumb 43.6355 52.3368
rfemur -38.0205 0.840781 33.0018
rtibia 47.3327
rfoot 6.71232 -12.2782
rtoes -28.7344
lfemur -33.6794 -5.08202 -16.9213
ltibia 74.8167
lfoot 11.2032 -2.75964
ltoes 25.1447
3246
root 11.4755 16.3448 -2.59315 -729.947 80.1853 -19.9519
lowerback 3.77538 0.626077 3.44409
upperback -7.191 1.36037 0.878327
thorax -9.68777 0.507443 -1.16789
lowerneck -2.29362 -3.85325 -8.25148
upperneck 15.8629 -5.60038 8.50022
head 5.60633 -2.56873 3.73919
rclavicle 8.85213e-015 4.87022e-015
rhumerus 29.5733 -7.37048 2.99347
rradius 32.9594
rwrist -5.35355
rhand 1.32716 18.837
rfingers 7.12502
rthumb 26.8609 -9.27482
lclavicle 8.85213e-015 4.87022e-015
lhumerus 29.3899 23.6786 19.6606
lradius 49.4971
lwrist -41.3205
lhand 18.8569 27.949
lfingers 7.12502
lthumb 43.4688 52.0272
rfemur -37.8247 1.10152 32.748
rtibia 48.0314
rfoot 4.13143 -13.3833
rtoes -20.6215
lfemur -35.1734 -5.76412 -16.8603
ltibia 75.1075
lfoot 9.61807 -1.88187
ltoes 25.9207
3247
root 11.6012 16.3385 -2.53462 -727.225 79.9912 -17.1994
lowerback 3.67753 0.648217 2.79441
upperback -7.20858 1.32123 0.781155
thorax -9.65616 0.532153 -0.901883
lowerneck -2.18053 -3.7366 -8.36227
upperneck 15.9874 -5.45045 8.5644
head 5.61647 -2.49768 3.79139
rclavicle 6.86273e-015 -3.13086e-015
rhumerus 30.2176 -7.68307 2.98636
rradius 33.3857
rwrist -5.87718
rhand 0.85349 19.106
rfingers 7.12502
rthumb 26.4076 -9.07477
lclavicle 6.86273e-015 -3.13086e-015
lhumerus 30.0913 23.883 20.0713
lradius 49.5631
lwrist -41.3071
lhand 18.6717 27.8251
lfingers 7.12502
lthumb 43.2958 51.9657
rfemur -37.6814 1.26948 32.3166
rtibia 48.7121
rfoot 1.67092 -13.9599
rtoes -11.7235
lfemur -36.4278 -6.40355 -17.1562
ltibia 75.0386
lfoot 7.94256 -0.771261
ltoes 23.692
3248
root 11.7262 16.3321 -2.48177 -726.215 79.7703 -16.1706
lowerback 3.59641 0.71241 2.52861
upperback -7.19761 1.37497 0.711471
thorax -9.59568 0.575495 -0.832077
lowerneck -2.10096 -3.67284 -8.47085
upperneck 16.0557 -5.38464 8.73096
head 5.6244 -2.4611 3.86963
rclavicle -7.55673e-015 5.40446e-015
rhumerus 30.648 -8.42716 2.58049
rradius 33.8618
rwrist -5.46867
rhand 0.902942 19.0783
rfingers 7.12502
rthumb 26.4549 -9.09529
lclavicle -7.55673e-015 5.40446e-015
lhumerus 31.0496 24.0784 20.7189
lradius 49.5939
lwrist -41.5301
lhand 18.6789 27.8827
lfingers 7.12502
lthumb 43.3025 52.0208
rfemur -37.4572 1.23096 32.3018
rtibia 49.273
rfoot 1.31162 -13.8264
rtoes -11.2432
lfemur -37.7477 -6.83832 -17.1673
ltibia 74.834
lfoot 6.45695 -0.114497
ltoes 19.5107
3249
root 11.8508 16.3382 -2.43145 -727.419 79.5291 -17.3518
lowerback 3.62396 0.725044 2.75364
upperback -7.21534 1.41297 0.710586
thorax -9.62707 0.576998 -0.963906
lowerneck -1.79548 -3.64402 -8.33696
upperneck 15.9098 -5.35618 8.66615
head 5.51856 -2.45114 3.83198
rclavicle -2.64353e-014 -1.3741e-014
rhumerus 31.4494 -9.60296 1.45
rradius 34.123
rwrist -3.98001
rhand 1.26247 19.6467
rfingers 7.12502
rthumb 26.799 -8.47469
lclavicle -2.64353e-014 -1.3741e-014
lhumerus 31.8555 24.1991 21.0477
lradius 49.7772
lwrist -41.475
lhand 18.8 27.7918
lfingers 7.12502
lthumb 43.4156 51.8892
rfemur -37.0533 0.999012 32.7554
rtibia 49.6715
rfoot 1.17828 -13.4218
rtoes -11.849
lfemur -39.0538 -7.16754 -16.6704
ltibia 74.5012
lfoot 5.17245 -0.213343
ltoes 17.1037
